<?xml version="1.0" encoding="UTF-8"?>
<svg id="ggccfaba" xmlns="http://www.w3.org/2000/svg" xmlns:xlink="http://www.w3.org/1999/xlink" viewBox="0 0 354.64 68.6">
  <defs>
    <style>
      .cls-1 {
        fill: url(#Degradado_sin_nombre_2);
      }

      .cls-2 {
        fill: url(#Degradado_sin_nombre_3);
      }

      .cls-3 {
        fill: url(#Degradado_sin_nombre);
      }
    </style>
    <linearGradient id="Degradado_sin_nombre" data-name="Degradado sin nombre" x1="-760.28" y1="560.89" x2="-760.28" y2="561.86" gradientTransform="translate(23876.67 21747.19) scale(31.38 -38.68)" gradientUnits="userSpaceOnUse">
      <stop offset="0" stop-color="#e2e3e4"/>
      <stop offset=".43" stop-color="#686868"/>
      <stop offset=".44" stop-color="#e1e2e3"/>
      <stop offset="1" stop-color="#676767"/>
    </linearGradient>
    <linearGradient id="Degradado_sin_nombre_2" data-name="Degradado sin nombre 2" x1="-765.56" y1="566.8" x2="-765.56" y2="567.77" gradientTransform="translate(30467.82 40191.4) scale(39.77 -70.79)" gradientUnits="userSpaceOnUse">
      <stop offset="0" stop-color="#e2e3e4"/>
      <stop offset=".43" stop-color="#686868"/>
      <stop offset=".44" stop-color="#e1e2e3"/>
      <stop offset="1" stop-color="#676767"/>
    </linearGradient>
    <linearGradient id="Degradado_sin_nombre_3" data-name="Degradado sin nombre 3" x1="-782.82" y1="557.1" x2="-782.82" y2="558.1" gradientTransform="translate(243052.5 16736.94) scale(310.23 -29.95)" gradientUnits="userSpaceOnUse">
      <stop offset="0" stop-color="#e2e3e4"/>
      <stop offset=".43" stop-color="#686868"/>
      <stop offset=".44" stop-color="#e1e2e3"/>
      <stop offset="1" stop-color="#676767"/>
    </linearGradient>
  </defs>
  <g id="SvgjsG3807">
    <g>
      <path class="cls-3" d="M29.43,15.56H8.16c-2.55,0-4.61,2.05-4.61,4.6v28.29c0,2.55,2.06,4.6,4.61,4.6h21.28c2.55,0,4.61-2.05,4.61-4.6v-28.29c0-2.55-2.06-4.6-4.61-4.6ZM28.73,35.71h-2.84c-.28,0-.5-.14-.64-.42l-.57-1.13-2.34,9.48c-.07.28-.35.57-.71.57h0c-.35,0-.64-.21-.71-.57l-3.33-14.5-.92,7.43c-.07.28-.28.57-.57.57-.28.07-.57-.07-.78-.28l-2.13-3.25-.85,1.77c-.14.21-.35.42-.64.42h-2.84c-.43,0-.71-.28-.71-.71s.28-.71.71-.71h1.99c.28,0,.5-.14.64-.42l.99-2.05c.14-.21.35-.35.57-.42.28,0,.5.07.64.28l1.77,2.69,1.21-9.41c.07-.35.35-.57.64-.64.35,0,.64.21.71.57l3.62,15.49,2.13-8.49c.07-.28.28-.5.64-.57.28,0,.57.14.71.35l.99,2.05c.14.21.35.42.64.42h1.99c.43,0,.71.28.71.71s-.28.78-.71.78Z"/>
      <path class="cls-1" d="M37.59,23.69v-3.54c0-3.75-2.62-6.93-6.1-7.85-.64-1.84-.99-4.74-.99-7,0-2.9-2.41-5.3-5.32-5.3h-12.77c-2.91,0-5.32,2.4-5.32,5.3,0,2.26-.35,5.16-.99,7-3.48.92-6.1,4.1-6.1,7.85v28.29c0,3.75,2.62,6.93,6.1,7.85.64,1.84.99,4.74.99,7,0,2.9,2.41,5.3,5.32,5.3h12.77c2.91,0,5.32-2.4,5.32-5.3,0-2.26.35-5.16.99-7,3.48-.92,6.1-4.1,6.1-7.85v-17.68c.57,0,1.06-.5,1.06-1.06v-4.95c0-.57-.5-1.06-1.06-1.06ZM9.22,5.3c0-1.77,1.42-3.18,3.19-3.18h12.77c1.77,0,3.19,1.41,3.19,3.18,0,.99.07,4.1.78,6.72H8.37c.78-2.62.85-5.73.85-6.72ZM28.37,63.29c0,1.77-1.42,3.18-3.19,3.18h-12.77c-1.77,0-3.19-1.41-3.19-3.18,0-.99-.07-4.1-.78-6.72h20.78c-.78,2.69-.85,5.73-.85,6.72ZM35.46,48.44c0,3.32-2.7,6.01-6.03,6.01H8.16c-3.33,0-6.03-2.69-6.03-6.01v-28.29c0-3.32,2.7-6.01,6.03-6.01h21.28c3.33,0,6.03,2.69,6.03,6.01v28.29Z"/>
    </g>
  </g>
  <g id="SvgjsG3808">
    <path class="cls-2" d="M57.56,49.2l.08-1.22c-3.73-.25-6.69-1.8-8.9-4.64-2.1-2.64-3.16-5.82-3.16-9.54,0-1.95.32-3.64.95-5.07.63-1.43,1.58-2.82,2.85-4.16,2.53-2.66,5.7-3.99,9.5-3.99,2.31,0,4.38.49,6.23,1.48s3.36,2.37,4.52,4.14l.91-.72c-1.27-1.93-2.91-3.43-4.94-4.52-1.93-1.04-4.11-1.55-6.54-1.52-2.05,0-3.98.35-5.78,1.05s-3.38,1.77-4.75,3.21c-1.37,1.47-2.4,2.99-3.1,4.56s-1.05,3.42-1.05,5.55c.03,4.03,1.18,7.48,3.46,10.34,2.43,3.07,5.66,4.75,9.69,5.06h0ZM59.88,49.24c2.08-.13,3.98-.62,5.7-1.48,1.98-1.01,3.64-2.45,4.98-4.3l-.87-.76c-1.22,1.67-2.75,2.99-4.6,3.95-1.6.81-3.35,1.27-5.25,1.37l.04,1.22ZM85.65,22.93c0,.15.45,1.6,1.35,4.35.9,2.75,1.88,5.76,2.95,9.03s2.5,7.59,4.3,12.96h1.63l-10.07-29.95h-.3l-10,29.95h1.56l8.59-26.34ZM84.97,40.76h-1.37l2.28,8.51h1.37l-2.28-8.51ZM102.08,41.79v-22.47h-1.25v22.47h1.25ZM112.3,49.28v-1.29h-10.23v-3.73h-1.25v5.02h11.48ZM130.55,49.28c4.21,0,7.79-1.48,10.76-4.45,1.47-1.44,2.58-3,3.33-4.68s1.12-3.57,1.12-5.7c0-4.23-1.48-7.81-4.45-10.72-2.97-2.89-6.63-4.35-10.99-4.37-2.69.03-5.21.7-7.56,2.01-2.31,1.34-4.14,3.21-5.51,5.59l1.1.61c1.24-2.2,2.93-3.92,5.06-5.13,2.1-1.22,4.41-1.84,6.92-1.86,4.05.03,7.43,1.38,10.11,4.07,2.69,2.64,4.04,5.9,4.07,9.81,0,1.95-.34,3.69-1.03,5.23s-1.69,2.97-3,4.31c-2.71,2.71-6.02,4.07-9.92,4.07-2.43,0-4.64-.52-6.61-1.56l-.57,1.1c2.15,1.12,4.55,1.67,7.18,1.67ZM159.06,40.19c1.62-.91,2.86-2.2,3.73-3.86s1.29-3.54,1.29-5.64v-.53c0-3.12-.93-5.7-2.79-7.75s-4.52-3.08-7.96-3.08h-2.62v12.05c.43.03.86.04,1.29.04v-10.87h1.25c3.12,0,5.47.91,7.07,2.72s2.39,4.14,2.39,6.98v.42c0,2.81-.8,5.12-2.39,6.92s-3.95,2.7-7.07,2.7h-2.55v1.22c.76.03,1.27.04,1.52.04h1.1c1.75,0,3.28-.27,4.6-.8l4.71,8.55h1.52l-5.09-9.09ZM169.09,19.32v29.95h.99v-29.95h-.99ZM176.09,38.18v-17.79h9.12v-1.06h-10.19v18.85h1.06ZM185.59,49.28v-1.03h-9.5v-7.87h1.52v-1.03h-2.58v9.92h10.57ZM213.23,49.2l.08-1.22c-3.73-.25-6.69-1.8-8.9-4.64-2.1-2.64-3.16-5.82-3.16-9.54,0-1.95.32-3.64.95-5.07s1.58-2.82,2.85-4.16c2.53-2.66,5.7-3.99,9.5-3.99,2.31,0,4.38.49,6.23,1.48s3.36,2.37,4.52,4.14l.91-.72c-1.27-1.93-2.91-3.43-4.94-4.52-1.93-1.04-4.11-1.55-6.54-1.52-2.05,0-3.98.35-5.78,1.05s-3.38,1.77-4.75,3.21c-1.37,1.47-2.4,2.99-3.1,4.56s-1.05,3.42-1.05,5.55c.03,4.03,1.18,7.48,3.46,10.34,2.43,3.07,5.66,4.75,9.69,5.06h0ZM215.55,49.24c2.08-.13,3.98-.62,5.7-1.48,1.98-1.01,3.64-2.45,4.98-4.3l-.87-.76c-1.22,1.67-2.75,2.99-4.6,3.95-1.6.81-3.35,1.27-5.25,1.37l.04,1.22ZM244.47,49.28c4.21,0,7.79-1.48,10.76-4.45,1.47-1.44,2.58-3,3.33-4.68s1.12-3.57,1.12-5.7c0-4.23-1.48-7.81-4.45-10.72-2.97-2.89-6.63-4.35-10.99-4.37-2.69.03-5.21.7-7.56,2.01-2.31,1.34-4.14,3.21-5.51,5.59l1.1.61c1.24-2.2,2.93-3.92,5.06-5.13,2.1-1.22,4.41-1.84,6.92-1.86,4.05.03,7.43,1.38,10.11,4.07,2.69,2.64,4.04,5.9,4.07,9.81,0,1.95-.34,3.69-1.03,5.23s-1.69,2.97-3,4.31c-2.71,2.71-6.02,4.07-9.92,4.07-2.43,0-4.64-.52-6.61-1.56l-.57,1.1c2.15,1.12,4.55,1.67,7.18,1.67h0ZM281.23,19.36v20.22c0,2.66-.7,4.71-2.11,6.16s-3.09,2.23-5.04,2.36v1.18c2.43-.15,4.38-1.05,5.85-2.7s2.2-3.98,2.2-6.99v-20.22s-.91,0-.91,0ZM272.68,48.14c-1.98-.15-3.62-.95-4.94-2.39s-1.98-3.5-1.98-6.16v-20.22h-1.14v20.22c0,3.04.73,5.38,2.19,7.01s3.41,2.53,5.87,2.68v-1.14ZM300.35,19.97v21.97c0,.68.01,1.44.04,2.28s.04,1.27.04,1.29c-.05-.08-.23-.49-.55-1.24s-.63-1.41-.93-2l-.53-1.03h-1.37l4.18,8.02h.34v-29.31s-1.22,0-1.22,0ZM289.67,26.35l.53,1.03h1.37l-4.22-8.06h-.27v29.38h1.18v-22.05c0-.63-.01-1.37-.04-2.22s-.04-1.29-.04-1.31c.03.08.2.49.53,1.25s.65,1.42.95,1.98h0ZM317.65,19.82v-.49h-11.14v1.22h6.42v28.74h1.33v-28.74h3.42c-.05-.41-.06-.65-.04-.72h0ZM318.64,19.32v1.22h2.09v-1.22h-2.09ZM326.74,38.18v-17.79h9.12v-1.06h-10.19v18.85h1.06ZM336.24,49.28v-1.03h-9.5v-7.87h1.52v-1.03h-2.58v9.92h10.57ZM349.54,40.19c1.62-.91,2.86-2.2,3.73-3.86s1.29-3.54,1.29-5.64v-.53c0-3.12-.93-5.7-2.79-7.75s-4.52-3.08-7.96-3.08h-2.62v12.05c.43.03.86.04,1.29.04v-10.87h1.25c3.12,0,5.47.91,7.07,2.72s2.39,4.14,2.39,6.98v.42c0,2.81-.8,5.12-2.39,6.92s-3.95,2.7-7.07,2.7h-2.55v1.22c.76.03,1.27.04,1.52.04h1.1c1.75,0,3.28-.27,4.6-.8l4.71,8.55h1.52l-5.09-9.09Z"/>
  </g>
</svg>