<?xml version="1.0" encoding="UTF-8"?>
<svg id="Capa_1" xmlns="http://www.w3.org/2000/svg" xmlns:xlink="http://www.w3.org/1999/xlink" viewBox="0 0 18.68 32">
  <defs>
    <style>
      .cls-1 {
        fill: url(#Degradado_sin_nombre_2);
      }

      .cls-2 {
        fill: url(#Degradado_sin_nombre_2-2);
      }
    </style>
    <linearGradient id="Degradado_sin_nombre_2" data-name="Degradado sin nombre 2" x1="-919.22" y1="543.25" x2="-919.22" y2="543.71" gradientTransform="translate(28854.55 21036.74) scale(31.38 -38.68)" gradientUnits="userSpaceOnUse">
      <stop offset="0" stop-color="#e2e3e3"/>
      <stop offset=".43" stop-color="#6a6a69"/>
      <stop offset=".44" stop-color="#e1e2e2"/>
      <stop offset="1" stop-color="#686868"/>
    </linearGradient>
    <linearGradient id="Degradado_sin_nombre_2-2" data-name="Degradado sin nombre 2" x1="-925.55" y1="549.16" x2="-925.55" y2="549.61" gradientTransform="translate(36820.82 38906) scale(39.77 -70.79)" xlink:href="#Degradado_sin_nombre_2"/>
  </defs>
  <g id="SvgjsG3807">
    <g>
      <path class="cls-1" d="M14.23,7.26H3.94c-1.23,0-2.23.96-2.23,2.14v13.2c0,1.19.99,2.14,2.23,2.14h10.29c1.23,0,2.23-.96,2.23-2.14v-13.2c0-1.19-.99-2.14-2.23-2.14ZM13.89,16.66h-1.37c-.14,0-.24-.07-.31-.2l-.27-.53-1.13,4.42c-.03.13-.17.26-.34.26h0c-.17,0-.31-.1-.34-.26l-1.61-6.76-.45,3.46c-.03.13-.14.26-.27.26-.14.03-.27-.03-.38-.13l-1.03-1.52-.41.82c-.07.1-.17.2-.31.2h-1.37c-.21,0-.34-.13-.34-.33s.14-.33.34-.33h.96c.14,0,.24-.07.31-.2l.48-.96c.07-.1.17-.16.27-.2.14,0,.24.03.31.13l.86,1.25.58-4.39c.03-.16.17-.26.31-.3.17,0,.31.1.34.26l1.75,7.22,1.03-3.96c.03-.13.14-.23.31-.26.14,0,.27.07.34.16l.48.96c.07.1.17.2.31.2h.96c.21,0,.34.13.34.33s-.14.36-.34.36Z"/>
      <path class="cls-2" d="M18.17,11.05v-1.65c0-1.75-1.27-3.23-2.95-3.66-.31-.86-.48-2.21-.48-3.27,0-1.35-1.17-2.47-2.57-2.47h-6.17c-1.41,0-2.57,1.12-2.57,2.47,0,1.06-.17,2.41-.48,3.27-1.68.43-2.95,1.91-2.95,3.66v13.2c0,1.75,1.27,3.23,2.95,3.66.31.86.48,2.21.48,3.27,0,1.35,1.17,2.47,2.57,2.47h6.17c1.41,0,2.57-1.12,2.57-2.47,0-1.06.17-2.41.48-3.27,1.68-.43,2.95-1.91,2.95-3.66v-8.25c.27,0,.51-.23.51-.49v-2.31c0-.26-.24-.49-.51-.49ZM4.46,2.47c0-.82.69-1.48,1.54-1.48h6.17c.86,0,1.54.66,1.54,1.48,0,.46.03,1.91.38,3.13H4.05c.38-1.22.41-2.67.41-3.13ZM13.71,29.53c0,.82-.69,1.48-1.54,1.48h-6.17c-.86,0-1.54-.66-1.54-1.48,0-.46-.03-1.91-.38-3.13h10.05c-.38,1.25-.41,2.67-.41,3.13ZM17.14,22.6c0,1.55-1.3,2.8-2.91,2.8H3.94c-1.61,0-2.91-1.25-2.91-2.8v-13.2c0-1.55,1.3-2.8,2.91-2.8h10.29c1.61,0,2.91,1.25,2.91,2.8v13.2Z"/>
    </g>
  </g>
</svg>